<svg width="56" height="56" viewBox="0 0 56 56" fill="none" xmlns="http://www.w3.org/2000/svg">
<path d="M45.5 9.33327H10.5C9.62472 9.2822 8.76488 9.58014 8.10884 10.1618C7.45281 10.7435 7.05408 11.5615 7 12.4366V43.5633C7.05408 44.4384 7.45281 45.2564 8.10884 45.838C8.76488 46.4197 9.62472 46.7177 10.5 46.6666H45.5C46.3753 46.7177 47.2351 46.4197 47.8912 45.838C48.5472 45.2564 48.9459 44.4384 49 43.5633V12.4366C48.9459 11.5615 48.5472 10.7435 47.8912 10.1618C47.2351 9.58014 46.3753 9.2822 45.5 9.33327V9.33327ZM19.4367 15.5633C20.0504 15.5633 20.6504 15.7453 21.1608 16.0863C21.6711 16.4273 22.0689 16.9119 22.3038 17.479C22.5387 18.0461 22.6001 18.67 22.4804 19.272C22.3606 19.874 22.0651 20.427 21.6311 20.861C21.197 21.295 20.6441 21.5906 20.0421 21.7103C19.4401 21.83 18.8161 21.7686 18.2491 21.5337C17.682 21.2988 17.1973 20.9011 16.8563 20.3907C16.5153 19.8804 16.3333 19.2804 16.3333 18.6666C16.3333 17.8435 16.6603 17.0542 17.2423 16.4722C17.8243 15.8902 18.6136 15.5633 19.4367 15.5633V15.5633ZM46.6667 42.7466C46.66 42.9627 46.6064 43.1748 46.5097 43.3681C46.413 43.5615 46.2755 43.7316 46.1067 43.8666C45.7415 44.1744 45.2775 44.3401 44.8 44.3333H11.2C10.7225 44.3401 10.2585 44.1744 9.89333 43.8666C9.72448 43.7316 9.58696 43.5615 9.49027 43.3681C9.39358 43.1748 9.34004 42.9627 9.33333 42.7466V38.6399C9.33276 38.4222 9.38058 38.207 9.47333 38.0099C9.5715 37.8019 9.71501 37.6185 9.89333 37.4733L19.2267 29.4933C19.6074 29.1784 20.0859 29.0061 20.58 29.0061C21.074 29.0061 21.5526 29.1784 21.9333 29.4933L26.3667 33.4599C26.5675 33.6481 26.8061 33.7913 27.0667 33.8799C27.3448 33.9256 27.6285 33.9256 27.9067 33.8799C28.1909 33.8528 28.4677 33.7737 28.7233 33.6466C28.9544 33.5121 29.1534 33.329 29.3067 33.1099L35.8167 24.0099C35.9917 23.7695 36.2244 23.5769 36.4933 23.4499C36.7618 23.3516 37.0482 23.3119 37.3333 23.3333C37.6487 23.3333 37.9599 23.4051 38.2433 23.5433C38.5123 23.6702 38.745 23.8628 38.92 24.1033L46.3867 34.3466C46.5513 34.5873 46.6407 34.8716 46.6433 35.1633L46.6667 42.7466Z" fill="#D2D2D2"/>
</svg>
